<svg width="1440" height="160" viewBox="0 0 1440 160" fill="none" xmlns="http://www.w3.org/2000/svg">
<rect width="1440" height="160" fill="#F3D7B7"/>
<path d="M541.586 86H539.242V81.125H534.672V86H532.328V74.625H534.672V79.2344H539.242V74.625H541.586V86ZM553.984 80.5703C553.984 81.6901 553.786 82.6719 553.391 83.5156C552.995 84.3594 552.427 85.0104 551.688 85.4688C550.953 85.9271 550.109 86.1562 549.156 86.1562C548.214 86.1562 547.372 85.9297 546.633 85.4766C545.893 85.0234 545.32 84.3776 544.914 83.5391C544.508 82.6953 544.302 81.7266 544.297 80.6328V80.0703C544.297 78.9505 544.497 77.9661 544.898 77.1172C545.305 76.263 545.875 75.6094 546.609 75.1562C547.349 74.6979 548.193 74.4688 549.141 74.4688C550.089 74.4688 550.93 74.6979 551.664 75.1562C552.404 75.6094 552.974 76.263 553.375 77.1172C553.781 77.9661 553.984 78.9479 553.984 80.0625V80.5703ZM551.609 80.0547C551.609 78.862 551.396 77.9557 550.969 77.3359C550.542 76.7161 549.932 76.4062 549.141 76.4062C548.354 76.4062 547.747 76.7135 547.32 77.3281C546.893 77.9375 546.677 78.8333 546.672 80.0156V80.5703C546.672 81.7318 546.885 82.6328 547.312 83.2734C547.74 83.9141 548.354 84.2344 549.156 84.2344C549.943 84.2344 550.547 83.9271 550.969 83.3125C551.391 82.6927 551.604 81.7917 551.609 80.6094V80.0547ZM559.75 74.625L562.672 82.875L565.578 74.625H568.656V86H566.305V82.8906L566.539 77.5234L563.469 86H561.859L558.797 77.5312L559.031 82.8906V86H556.688V74.625H559.75ZM578.547 81.0703H574.047V84.1172H579.328V86H571.703V74.625H579.312V76.5234H574.047V79.2344H578.547V81.0703Z" fill="#333333"/>
<path d="M627.758 83.6562H623.648L622.867 86H620.375L624.609 74.625H626.781L631.039 86H628.547L627.758 83.6562ZM624.281 81.7578H627.125L625.695 77.5L624.281 81.7578ZM633.102 86V74.625H637.086C638.466 74.625 639.513 74.8906 640.227 75.4219C640.94 75.9479 641.297 76.7214 641.297 77.7422C641.297 78.2995 641.154 78.7917 640.867 79.2188C640.581 79.6406 640.182 79.9505 639.672 80.1484C640.255 80.2943 640.714 80.5885 641.047 81.0312C641.385 81.474 641.555 82.0156 641.555 82.6562C641.555 83.75 641.206 84.5781 640.508 85.1406C639.81 85.7031 638.815 85.9896 637.523 86H633.102ZM635.445 81.0469V84.1172H637.453C638.005 84.1172 638.435 83.987 638.742 83.7266C639.055 83.4609 639.211 83.0964 639.211 82.6328C639.211 81.5911 638.672 81.0625 637.594 81.0469H635.445ZM635.445 79.3906H637.18C638.362 79.3698 638.953 78.8984 638.953 77.9766C638.953 77.4609 638.802 77.0911 638.5 76.8672C638.203 76.638 637.732 76.5234 637.086 76.5234H635.445V79.3906ZM653.664 80.5703C653.664 81.6901 653.466 82.6719 653.07 83.5156C652.674 84.3594 652.107 85.0104 651.367 85.4688C650.633 85.9271 649.789 86.1562 648.836 86.1562C647.893 86.1562 647.052 85.9297 646.312 85.4766C645.573 85.0234 645 84.3776 644.594 83.5391C644.188 82.6953 643.982 81.7266 643.977 80.6328V80.0703C643.977 78.9505 644.177 77.9661 644.578 77.1172C644.984 76.263 645.555 75.6094 646.289 75.1562C647.029 74.6979 647.872 74.4688 648.82 74.4688C649.768 74.4688 650.609 74.6979 651.344 75.1562C652.083 75.6094 652.654 76.263 653.055 77.1172C653.461 77.9661 653.664 78.9479 653.664 80.0625V80.5703ZM651.289 80.0547C651.289 78.862 651.076 77.9557 650.648 77.3359C650.221 76.7161 649.612 76.4062 648.82 76.4062C648.034 76.4062 647.427 76.7135 647 77.3281C646.573 77.9375 646.357 78.8333 646.352 80.0156V80.5703C646.352 81.7318 646.565 82.6328 646.992 83.2734C647.419 83.9141 648.034 84.2344 648.836 84.2344C649.622 84.2344 650.227 83.9271 650.648 83.3125C651.07 82.6927 651.284 81.7917 651.289 80.6094V80.0547ZM664.977 74.625V82.1172C664.977 83.362 664.586 84.3464 663.805 85.0703C663.029 85.7943 661.966 86.1562 660.617 86.1562C659.289 86.1562 658.234 85.8047 657.453 85.1016C656.672 84.3984 656.273 83.4323 656.258 82.2031V74.625H658.602V82.1328C658.602 82.8776 658.779 83.4219 659.133 83.7656C659.492 84.1042 659.987 84.2734 660.617 84.2734C661.935 84.2734 662.604 83.5807 662.625 82.1953V74.625H664.977ZM676.461 76.5234H672.977V86H670.633V76.5234H667.195V74.625H676.461V76.5234ZM691.93 74.625V82.1172C691.93 83.362 691.539 84.3464 690.758 85.0703C689.982 85.7943 688.919 86.1562 687.57 86.1562C686.242 86.1562 685.188 85.8047 684.406 85.1016C683.625 84.3984 683.227 83.4323 683.211 82.2031V74.625H685.555V82.1328C685.555 82.8776 685.732 83.4219 686.086 83.7656C686.445 84.1042 686.94 84.2734 687.57 84.2734C688.888 84.2734 689.557 83.5807 689.578 82.1953V74.625H691.93ZM700.75 83.0156C700.75 82.5729 700.594 82.2344 700.281 82C699.969 81.7604 699.406 81.5104 698.594 81.25C697.781 80.9844 697.138 80.724 696.664 80.4688C695.372 79.7708 694.727 78.8307 694.727 77.6484C694.727 77.0339 694.898 76.487 695.242 76.0078C695.591 75.5234 696.089 75.1458 696.734 74.875C697.385 74.6042 698.115 74.4688 698.922 74.4688C699.734 74.4688 700.458 74.6172 701.094 74.9141C701.729 75.2057 702.221 75.6198 702.57 76.1562C702.924 76.6927 703.102 77.3021 703.102 77.9844H700.758C700.758 77.4635 700.594 77.0599 700.266 76.7734C699.938 76.4818 699.477 76.3359 698.883 76.3359C698.31 76.3359 697.865 76.4583 697.547 76.7031C697.229 76.9427 697.07 77.2604 697.07 77.6562C697.07 78.026 697.255 78.3359 697.625 78.5859C698 78.8359 698.549 79.0703 699.273 79.2891C700.607 79.6901 701.578 80.1875 702.188 80.7812C702.797 81.375 703.102 82.1146 703.102 83C703.102 83.9844 702.729 84.7578 701.984 85.3203C701.24 85.8776 700.237 86.1562 698.977 86.1562C698.102 86.1562 697.305 85.9974 696.586 85.6797C695.867 85.3568 695.318 84.9167 694.938 84.3594C694.562 83.8021 694.375 83.1562 694.375 82.4219H696.727C696.727 83.6771 697.477 84.3047 698.977 84.3047C699.534 84.3047 699.969 84.1927 700.281 83.9688C700.594 83.7396 700.75 83.4219 700.75 83.0156Z" fill="#333333"/>
<path d="M754.414 82.2109C754.326 83.4349 753.872 84.3984 753.055 85.1016C752.242 85.8047 751.169 86.1562 749.836 86.1562C748.378 86.1562 747.229 85.6667 746.391 84.6875C745.557 83.7031 745.141 82.3542 745.141 80.6406V79.9453C745.141 78.8516 745.333 77.888 745.719 77.0547C746.104 76.2214 746.654 75.5833 747.367 75.1406C748.086 74.6927 748.919 74.4688 749.867 74.4688C751.18 74.4688 752.237 74.8203 753.039 75.5234C753.841 76.2266 754.305 77.2135 754.43 78.4844H752.086C752.029 77.75 751.823 77.2188 751.469 76.8906C751.12 76.5573 750.586 76.3906 749.867 76.3906C749.086 76.3906 748.5 76.6719 748.109 77.2344C747.724 77.7917 747.526 78.6589 747.516 79.8359V80.6953C747.516 81.9245 747.701 82.8229 748.07 83.3906C748.445 83.9583 749.034 84.2422 749.836 84.2422C750.56 84.2422 751.099 84.0781 751.453 83.75C751.812 83.4167 752.018 82.9036 752.07 82.2109H754.414ZM761.164 81.8359H759.297V86H756.953V74.625H761.18C762.523 74.625 763.56 74.9245 764.289 75.5234C765.018 76.1224 765.383 76.9688 765.383 78.0625C765.383 78.8385 765.214 79.487 764.875 80.0078C764.542 80.5234 764.034 80.9349 763.352 81.2422L765.812 85.8906V86H763.297L761.164 81.8359ZM759.297 79.9375H761.188C761.776 79.9375 762.232 79.7891 762.555 79.4922C762.878 79.1901 763.039 78.776 763.039 78.25C763.039 77.7135 762.885 77.2917 762.578 76.9844C762.276 76.6771 761.81 76.5234 761.18 76.5234H759.297V79.9375ZM775.016 81.0703H770.516V84.1172H775.797V86H768.172V74.625H775.781V76.5234H770.516V79.2344H775.016V81.0703ZM784.594 83.6562H780.484L779.703 86H777.211L781.445 74.625H783.617L787.875 86H785.383L784.594 83.6562ZM781.117 81.7578H783.961L782.531 77.5L781.117 81.7578ZM797.562 76.5234H794.078V86H791.734V76.5234H788.297V74.625H797.562V76.5234ZM806.75 81.0703H802.25V84.1172H807.531V86H799.906V74.625H807.516V76.5234H802.25V79.2344H806.75V81.0703ZM818.812 79.75L821.18 74.625H823.742L820.008 81.875V86H817.625V81.875L813.891 74.625H816.461L818.812 79.75ZM834.891 80.5703C834.891 81.6901 834.693 82.6719 834.297 83.5156C833.901 84.3594 833.333 85.0104 832.594 85.4688C831.859 85.9271 831.016 86.1562 830.062 86.1562C829.12 86.1562 828.279 85.9297 827.539 85.4766C826.799 85.0234 826.227 84.3776 825.82 83.5391C825.414 82.6953 825.208 81.7266 825.203 80.6328V80.0703C825.203 78.9505 825.404 77.9661 825.805 77.1172C826.211 76.263 826.781 75.6094 827.516 75.1562C828.255 74.6979 829.099 74.4688 830.047 74.4688C830.995 74.4688 831.836 74.6979 832.57 75.1562C833.31 75.6094 833.88 76.263 834.281 77.1172C834.688 77.9661 834.891 78.9479 834.891 80.0625V80.5703ZM832.516 80.0547C832.516 78.862 832.302 77.9557 831.875 77.3359C831.448 76.7161 830.839 76.4062 830.047 76.4062C829.26 76.4062 828.654 76.7135 828.227 77.3281C827.799 77.9375 827.583 78.8333 827.578 80.0156V80.5703C827.578 81.7318 827.792 82.6328 828.219 83.2734C828.646 83.9141 829.26 84.2344 830.062 84.2344C830.849 84.2344 831.453 83.9271 831.875 83.3125C832.297 82.6927 832.51 81.7917 832.516 80.6094V80.0547ZM846.203 74.625V82.1172C846.203 83.362 845.812 84.3464 845.031 85.0703C844.255 85.7943 843.193 86.1562 841.844 86.1562C840.516 86.1562 839.461 85.8047 838.68 85.1016C837.898 84.3984 837.5 83.4323 837.484 82.2031V74.625H839.828V82.1328C839.828 82.8776 840.005 83.4219 840.359 83.7656C840.719 84.1042 841.214 84.2734 841.844 84.2734C843.161 84.2734 843.831 83.5807 843.852 82.1953V74.625H846.203ZM853.336 81.8359H851.469V86H849.125V74.625H853.352C854.695 74.625 855.732 74.9245 856.461 75.5234C857.19 76.1224 857.555 76.9688 857.555 78.0625C857.555 78.8385 857.385 79.487 857.047 80.0078C856.714 80.5234 856.206 80.9349 855.523 81.2422L857.984 85.8906V86H855.469L853.336 81.8359ZM851.469 79.9375H853.359C853.948 79.9375 854.404 79.7891 854.727 79.4922C855.049 79.1901 855.211 78.776 855.211 78.25C855.211 77.7135 855.057 77.2917 854.75 76.9844C854.448 76.6771 853.982 76.5234 853.352 76.5234H851.469V79.9375ZM867.672 81.9922V86H865.328V74.625H869.766C870.62 74.625 871.37 74.7812 872.016 75.0938C872.667 75.4062 873.167 75.8516 873.516 76.4297C873.865 77.0026 874.039 77.6562 874.039 78.3906C874.039 79.5052 873.656 80.3854 872.891 81.0312C872.13 81.6719 871.076 81.9922 869.727 81.9922H867.672ZM867.672 80.0938H869.766C870.385 80.0938 870.857 79.9479 871.18 79.6562C871.508 79.3646 871.672 78.9479 871.672 78.4062C871.672 77.849 871.508 77.3984 871.18 77.0547C870.852 76.7109 870.398 76.5339 869.82 76.5234H867.672V80.0938ZM879 84.1172H883.977V86H876.656V74.625H879V84.1172ZM892.906 83.6562H888.797L888.016 86H885.523L889.758 74.625H891.93L896.188 86H893.695L892.906 83.6562ZM889.43 81.7578H892.273L890.844 77.5L889.43 81.7578ZM907.5 86H905.156L900.594 78.5156V86H898.25V74.625H900.594L905.164 82.125V74.625H907.5V86Z" fill="#333333"/>
<path fill-rule="evenodd" clip-rule="evenodd" d="M116.751 84.8595C116.751 85.3664 116.496 85.6198 115.985 85.6198H106.989C106.771 85.6198 106.595 85.5565 106.459 85.4298C106.323 85.303 106.255 85.124 106.255 84.8926C106.255 84.6942 106.301 84.5344 106.394 84.4132C106.486 84.292 106.63 84.1928 106.826 84.1157L107.526 83.9008C107.7 83.8457 107.836 83.741 107.934 83.5868C108.032 83.4325 108.081 83.2121 108.081 82.9256V73.3719C108.081 73.2176 108.042 73.0882 107.966 72.9835C107.89 72.8788 107.749 72.7824 107.543 72.6942L106.597 72.3802C106.347 72.259 106.168 72.1295 106.059 71.9917C105.951 71.854 105.897 71.686 105.897 71.4876C105.897 71.2893 105.964 71.1267 106.1 71L106.154 70.9554C106.284 70.8584 106.453 70.8099 106.663 70.8099H108.093L108.082 70.7133C108.051 70.5201 107.975 70.3347 107.852 70.157C107.689 69.9201 107.505 69.6529 107.298 69.3554C107.092 69.0579 106.907 68.7025 106.744 68.2893C106.581 67.876 106.5 67.3664 106.5 66.7603C106.5 65.3168 106.989 64.1625 107.966 63.2975C108.944 62.4325 110.335 62 112.139 62C113.302 62 114.266 62.1873 115.032 62.562C115.798 62.9366 116.371 63.4353 116.751 64.0579C117.132 64.6804 117.322 65.3609 117.322 66.0992C117.322 66.9697 117.096 67.6226 116.645 68.0579C116.195 68.4931 115.616 68.7107 114.91 68.7107C114.127 68.7107 113.497 68.4573 113.019 67.9504C112.541 67.4435 112.302 66.7713 112.302 65.9339V64.4628C112.302 64.0771 112.226 63.7934 112.074 63.6116C111.922 63.4298 111.688 63.3388 111.373 63.3388C110.971 63.3388 110.667 63.4766 110.46 63.7521C110.254 64.0275 110.15 64.4242 110.15 64.9421C110.15 65.4711 110.273 65.9669 110.517 66.4298C110.762 66.8926 111.063 67.3251 111.422 67.7273C111.78 68.1295 112.139 68.5152 112.497 68.8843C112.856 69.2534 113.158 69.6171 113.402 69.9752L113.472 70.0826C113.604 70.2971 113.692 70.5107 113.736 70.7232L113.751 70.8099H116.165C116.415 70.8099 116.607 70.8623 116.743 70.9669C116.879 71.0716 116.947 71.2342 116.947 71.4545C116.947 71.7851 116.806 72.0551 116.523 72.2645C116.241 72.4738 115.795 72.5785 115.187 72.5785H114.03V82.876C114.03 83.1846 114.076 83.4215 114.168 83.5868C114.26 83.7521 114.41 83.8512 114.616 83.8843L116.018 84.0992C116.268 84.1322 116.453 84.2121 116.572 84.3388C116.692 84.4656 116.751 84.6391 116.751 84.8595ZM84.6593 85.2397C83.6814 85.7135 82.5405 85.9504 81.2366 85.9504C79.8567 85.9504 78.6207 85.6584 77.5287 85.0744C76.4367 84.4904 75.5755 83.6446 74.9453 82.5372C74.3151 81.4298 74 80.0826 74 78.4959C74 76.9642 74.3287 75.595 74.9861 74.3884C75.6434 73.1818 76.5589 72.2287 77.7324 71.5289C78.9059 70.8292 80.275 70.4793 81.8397 70.4793C83.1762 70.4793 84.3035 70.6777 85.2216 71.0744C86.1398 71.4711 86.8406 72.0083 87.3242 72.686C87.8077 73.3636 88.0495 74.1212 88.0495 74.9587C88.0495 75.8402 87.7968 76.5317 87.2916 77.0331C86.7863 77.5344 86.099 77.7851 85.2298 77.7851C84.3388 77.7851 83.6624 77.5289 83.2006 77.0165C82.7388 76.5041 82.5079 75.8017 82.5079 74.9091V73.8512C82.5079 73.3113 82.4101 72.9036 82.2145 72.6281C82.0189 72.3526 81.7419 72.2149 81.3833 72.2149C81.0247 72.2149 80.7015 72.3609 80.4135 72.6529C80.1256 72.9449 79.9028 73.3829 79.7453 73.9669C79.5877 74.551 79.509 75.2727 79.509 76.1322C79.509 77.3664 79.691 78.4022 80.055 79.2397C80.419 80.0771 80.9161 80.7052 81.5463 81.124C82.1765 81.5427 82.8936 81.7521 83.6977 81.7521C84.5018 81.7521 85.1755 81.6336 85.7187 81.3967C86.262 81.1598 86.6804 80.7603 86.9737 80.1983C87.1367 80.0441 87.2644 79.9449 87.3568 79.9008C87.4491 79.8567 87.5388 79.8347 87.6257 79.8347C87.7344 79.8457 87.824 79.8981 87.8946 79.9917C87.9652 80.0854 87.9951 80.2314 87.9843 80.4298C87.8973 81.5096 87.5659 82.4628 86.99 83.2893C86.4142 84.1157 85.6373 84.7658 84.6593 85.2397ZM101.227 84.9091C100.005 85.5813 98.5838 85.9174 96.9648 85.9174C95.3893 85.9174 94.0066 85.5895 92.8168 84.9339C91.627 84.2782 90.7007 83.3719 90.0379 82.2149C89.3751 81.0579 89.0437 79.719 89.0437 78.1983C89.0437 76.7438 89.3914 75.4353 90.0868 74.2727C90.7822 73.1102 91.7438 72.1873 92.9717 71.5041C94.1995 70.8209 95.612 70.4793 97.2093 70.4793C98.7957 70.4793 100.181 70.8099 101.365 71.4711C102.55 72.1322 103.473 73.0468 104.136 74.2149C104.799 75.3829 105.13 76.7328 105.13 78.2645C105.13 79.719 104.785 81.022 104.096 82.1736C103.406 83.3251 102.449 84.2369 101.227 84.9091ZM98.2035 84.1983C97.8667 84.2645 97.538 84.1157 97.2175 83.7521C96.8969 83.3884 96.5927 82.7769 96.3047 81.9174C96.0168 81.0579 95.7424 79.9284 95.4817 78.5289C95.2317 77.1295 95.0905 75.978 95.0579 75.0744C95.0253 74.1708 95.0905 73.4876 95.2535 73.0248C95.4165 72.562 95.6664 72.292 96.0032 72.2149C96.3401 72.1488 96.6687 72.2975 96.9893 72.6612C97.3098 73.0248 97.6168 73.6364 97.9102 74.4959C98.2035 75.3554 98.4806 76.4848 98.7414 77.8843C99.0022 79.2837 99.1461 80.438 99.1733 81.3471C99.2005 82.2562 99.1298 82.9421 98.9614 83.405C98.793 83.8678 98.5404 84.1322 98.2035 84.1983ZM127.362 85.6198C127.873 85.6198 128.128 85.3664 128.128 84.8595C128.128 84.6391 128.068 84.4656 127.949 84.3388C127.829 84.2121 127.644 84.1322 127.394 84.0992L125.993 83.8843C125.786 83.8512 125.637 83.7521 125.545 83.5868C125.452 83.4215 125.406 83.1846 125.406 82.876V72.5785H126.563C127.172 72.5785 127.617 72.4738 127.9 72.2645C128.182 72.0551 128.323 71.7851 128.323 71.4545C128.323 71.2342 128.256 71.0716 128.12 70.9669C127.984 70.8623 127.791 70.8099 127.541 70.8099H125.127L125.112 70.7232C125.068 70.5107 124.98 70.2971 124.848 70.0826L124.779 69.9752C124.534 69.6171 124.233 69.2534 123.874 68.8843C123.515 68.5152 123.157 68.1295 122.798 67.7273C122.44 67.3251 122.138 66.8926 121.894 66.4298C121.649 65.9669 121.527 65.4711 121.527 64.9421C121.527 64.4242 121.63 64.0275 121.837 63.7521C122.043 63.4766 122.347 63.3388 122.749 63.3388C123.064 63.3388 123.298 63.4298 123.45 63.6116C123.602 63.7934 123.678 64.0771 123.678 64.4628V65.9339C123.678 66.7713 123.917 67.4435 124.396 67.9504C124.874 68.4573 125.504 68.7107 126.286 68.7107C126.992 68.7107 127.571 68.4931 128.022 68.0579C128.473 67.6226 128.698 66.9697 128.698 66.0992C128.698 65.3609 128.508 64.6804 128.128 64.0579C127.748 63.4353 127.174 62.9366 126.408 62.562C125.642 62.1873 124.678 62 123.515 62C121.712 62 120.321 62.4325 119.343 63.2975C118.365 64.1625 117.876 65.3168 117.876 66.7603C117.876 67.3664 117.958 67.876 118.121 68.2893C118.284 68.7025 118.468 69.0579 118.675 69.3554C118.881 69.6529 119.066 69.9201 119.229 70.157C119.351 70.3347 119.427 70.5201 119.458 70.7133L119.469 70.8099H118.039C117.83 70.8099 117.66 70.8584 117.53 70.9554L117.477 71C117.341 71.1267 117.273 71.2893 117.273 71.4876C117.273 71.686 117.327 71.854 117.436 71.9917C117.545 72.1295 117.724 72.259 117.974 72.3802L118.919 72.6942C119.126 72.7824 119.267 72.8788 119.343 72.9835C119.419 73.0882 119.457 73.2176 119.457 73.3719V82.9256C119.457 83.2121 119.408 83.4325 119.31 83.5868C119.213 83.741 119.077 83.8457 118.903 83.9008L118.202 84.1157C118.006 84.1928 117.862 84.292 117.77 84.4132C117.678 84.5344 117.632 84.6942 117.632 84.8926C117.632 85.124 117.699 85.303 117.835 85.4298C117.971 85.5565 118.148 85.6198 118.365 85.6198H127.362ZM140.124 85.1405C139.07 85.6804 137.853 85.9504 136.473 85.9504C134.952 85.9504 133.615 85.6336 132.463 85C131.312 84.3664 130.412 83.4793 129.766 82.3388C129.119 81.1983 128.796 79.8788 128.796 78.3802C128.796 76.8044 129.109 75.4242 129.733 74.2397C130.358 73.0551 131.263 72.1322 132.447 71.4711C133.631 70.8099 135.055 70.4793 136.717 70.4793C138.13 70.4793 139.347 70.7576 140.368 71.314C141.39 71.8705 142.175 72.6253 142.723 73.5785C143.272 74.5317 143.546 75.5923 143.546 76.7603C143.546 77.2672 143.411 77.6667 143.139 77.9587L143.074 78.0235C142.806 78.2723 142.437 78.3967 141.965 78.3967H134.515L134.531 78.4729C134.728 79.3804 135.066 80.1071 135.544 80.6529C136.359 81.584 137.445 82.0496 138.804 82.0496C139.673 82.0496 140.442 81.8512 141.11 81.4545C141.778 81.0578 142.226 80.5069 142.454 79.8017C142.585 79.6584 142.702 79.562 142.805 79.5124C142.908 79.4628 142.998 79.438 143.074 79.438C143.182 79.438 143.275 79.4821 143.351 79.5702C143.427 79.6584 143.465 79.8072 143.465 80.0165C143.465 81.0964 143.172 82.0854 142.585 82.9835C141.998 83.8815 141.178 84.6005 140.124 85.1405ZM134.345 77.0717C134.329 76.8181 134.321 76.5546 134.321 76.281C134.321 75.2452 134.397 74.4298 134.55 73.8347C134.702 73.2397 134.897 72.8182 135.136 72.5702C135.375 72.3223 135.642 72.1983 135.935 72.1983C136.315 72.1983 136.671 72.5234 137.003 73.1736C137.334 73.8237 137.5 74.9036 137.5 76.4132C137.5 76.876 137.293 77.1074 136.88 77.1074H134.347L134.345 77.0717ZM155.705 85.1405C154.651 85.6804 153.434 85.9504 152.054 85.9504C150.533 85.9504 149.197 85.6336 148.045 85C146.893 84.3664 145.994 83.4793 145.347 82.3388C144.701 81.1983 144.378 79.8788 144.378 78.3802C144.378 76.8044 144.69 75.4242 145.315 74.2397C145.94 73.0551 146.844 72.1322 148.029 71.4711C149.213 70.8099 150.636 70.4793 152.299 70.4793C153.711 70.4793 154.928 70.7576 155.95 71.314C156.971 71.8705 157.756 72.6253 158.305 73.5785C158.854 74.5317 159.128 75.5923 159.128 76.7603C159.128 77.2672 158.992 77.6667 158.721 77.9587L158.656 78.0235C158.388 78.2723 158.018 78.3967 157.547 78.3967H150.096L150.112 78.4729C150.31 79.3804 150.648 80.1071 151.125 80.6529C151.94 81.584 153.027 82.0496 154.385 82.0496C155.254 82.0496 156.023 81.8512 156.691 81.4545C157.36 81.0578 157.808 80.5069 158.036 79.8017C158.166 79.6584 158.283 79.562 158.386 79.5124C158.49 79.4628 158.579 79.438 158.655 79.438C158.764 79.438 158.856 79.4821 158.932 79.5702C159.008 79.6584 159.046 79.8072 159.046 80.0165C159.046 81.0964 158.753 82.0854 158.166 82.9835C157.58 83.8815 156.759 84.6005 155.705 85.1405ZM149.926 77.0717C149.911 76.8181 149.903 76.5546 149.903 76.281C149.903 75.2452 149.979 74.4298 150.131 73.8347C150.283 73.2397 150.479 72.8182 150.718 72.5702C150.957 72.3223 151.223 72.1983 151.517 72.1983C151.897 72.1983 152.253 72.5234 152.584 73.1736C152.915 73.8237 153.081 74.9036 153.081 76.4132C153.081 76.876 152.875 77.1074 152.462 77.1074H149.928L149.926 77.0717ZM169.6 85.4132C169.464 85.551 169.266 85.6198 169.005 85.6198H160.856C160.617 85.6198 160.429 85.5537 160.293 85.4215C160.158 85.2893 160.09 85.1074 160.09 84.876C160.09 84.6997 160.13 84.5537 160.212 84.438C160.293 84.3223 160.405 84.2149 160.546 84.1157L160.921 83.9669C161.062 83.9008 161.16 83.7961 161.214 83.6529C161.269 83.5096 161.296 83.2727 161.296 82.9421V74.5455C161.296 74.281 161.266 74.0909 161.206 73.9752C161.146 73.8595 161.046 73.7686 160.905 73.7025L160.481 73.6529C160.329 73.5647 160.217 73.4711 160.147 73.3719C160.076 73.2727 160.041 73.146 160.041 72.9917C160.041 72.8154 160.095 72.6584 160.204 72.5207C160.312 72.3829 160.497 72.2645 160.758 72.1653L165.387 70.8264C165.658 70.7163 165.886 70.6391 166.071 70.595C166.256 70.551 166.413 70.5289 166.544 70.5289C166.729 70.5289 166.867 70.595 166.959 70.7273L166.989 70.7752C167.065 70.9134 167.118 71.1344 167.147 71.438L167.271 74.0064L167.299 73.9116C167.354 73.7327 167.415 73.5611 167.481 73.3967C167.878 72.4105 168.402 71.6777 169.054 71.1983C169.706 70.719 170.418 70.4793 171.189 70.4793C172.123 70.4793 172.841 70.7934 173.34 71.4215C173.84 72.0496 174.09 73.0028 174.09 74.281C174.09 75.5482 173.829 76.4793 173.308 77.0744C172.786 77.6694 172.113 77.9669 171.287 77.9669C170.483 77.9669 169.888 77.7631 169.502 77.3554C169.116 76.9477 168.913 76.3691 168.891 75.6198L168.875 74.9587C168.864 74.7052 168.815 74.5069 168.728 74.3636C168.641 74.2204 168.5 74.1488 168.304 74.1488C168.109 74.1488 167.937 74.2507 167.791 74.4545C167.644 74.6584 167.533 74.9697 167.457 75.3884C167.381 75.8072 167.343 76.3416 167.343 76.9917V82.8099C167.343 83.1185 167.391 83.3636 167.489 83.5455C167.587 83.7273 167.739 83.8402 167.946 83.8843L169.168 84.1322C169.396 84.1653 169.559 84.2507 169.657 84.3884C169.755 84.5262 169.804 84.6887 169.804 84.876C169.804 85.0964 169.736 85.2755 169.6 85.4132ZM182.631 85.9174C184.25 85.9174 185.67 85.5813 186.893 84.9091C188.115 84.2369 189.071 83.3251 189.761 82.1736C190.451 81.022 190.796 79.719 190.796 78.2645C190.796 76.7328 190.465 75.3829 189.802 74.2149C189.139 73.0468 188.216 72.1322 187.031 71.4711C185.847 70.8099 184.462 70.4793 182.875 70.4793C181.278 70.4793 179.865 70.8209 178.637 71.5041C177.41 72.1873 176.448 73.1102 175.753 74.2727C175.057 75.4353 174.71 76.7438 174.71 78.1983C174.71 79.719 175.041 81.0579 175.704 82.2149C176.367 83.3719 177.293 84.2782 178.483 84.9339C179.672 85.5895 181.055 85.9174 182.631 85.9174ZM182.883 83.7521C183.204 84.1157 183.533 84.2645 183.869 84.1983C184.206 84.1322 184.459 83.8678 184.627 83.405C184.796 82.9421 184.866 82.2562 184.839 81.3471C184.812 80.438 184.668 79.2837 184.407 77.8843C184.146 76.4848 183.869 75.3554 183.576 74.4959C183.283 73.6364 182.976 73.0248 182.655 72.6612C182.335 72.2975 182.006 72.1488 181.669 72.2149C181.332 72.292 181.082 72.562 180.919 73.0248C180.756 73.4876 180.691 74.1708 180.724 75.0744C180.756 75.978 180.898 77.1295 181.147 78.5289C181.408 79.9284 181.683 81.0579 181.971 81.9174C182.259 82.7769 182.563 83.3884 182.883 83.7521ZM203.721 85.9504C204.634 85.9504 205.384 85.7824 205.97 85.4463C206.557 85.1102 206.994 84.7107 207.282 84.2479C207.57 83.7851 207.714 83.3609 207.714 82.9752C207.714 82.8099 207.679 82.6722 207.608 82.562C207.538 82.4518 207.443 82.3967 207.323 82.3967C207.269 82.3967 207.22 82.4077 207.176 82.4298C207.133 82.4518 207.095 82.4848 207.062 82.5289C207.008 82.7273 206.924 82.865 206.81 82.9421C206.696 83.0193 206.573 83.0578 206.443 83.0578C206.258 83.0578 206.12 82.9945 206.027 82.8678C205.935 82.741 205.889 82.573 205.889 82.3636V75.0579C205.889 73.6033 205.397 72.4766 204.414 71.6777C203.43 70.8788 201.89 70.4793 199.793 70.4793C198.163 70.4793 196.802 70.6832 195.71 71.0909C194.618 71.4986 193.798 72.0193 193.249 72.6529C192.701 73.2865 192.426 73.9339 192.426 74.595C192.426 75.3003 192.63 75.8375 193.037 76.2066C193.445 76.5758 194.034 76.7603 194.806 76.7603C195.751 76.7603 196.495 76.5041 197.039 75.9917C197.582 75.4793 197.854 74.8154 197.854 74V72.7438C197.854 72.4353 197.949 72.1956 198.139 72.0248C198.329 71.854 198.565 71.7686 198.848 71.7686C199.152 71.7686 199.394 71.8815 199.573 72.1074C199.752 72.3333 199.842 72.6391 199.842 73.0248L199.842 77.843L199.755 77.8241C199.493 77.7735 199.189 77.7446 198.844 77.7373L198.669 77.7355C196.332 77.7355 194.591 78.1322 193.445 78.9256C192.299 79.719 191.725 80.8264 191.725 82.2479C191.725 83.3278 192.119 84.2149 192.907 84.9091C193.695 85.6033 194.741 85.9504 196.044 85.9504C197.022 85.9504 197.935 85.7493 198.783 85.3471C199.418 85.0455 199.935 84.6493 200.332 84.1586L200.355 84.1299L200.379 84.2039C200.504 84.5612 200.733 84.8813 201.067 85.1642L201.17 85.2479C201.773 85.7163 202.624 85.9504 203.721 85.9504ZM198.106 82.8347C198.372 83.1928 198.723 83.3719 199.158 83.3719L199.251 83.3687C199.436 83.3558 199.615 83.3041 199.789 83.2137L199.842 83.1837V78.9422L199.761 78.9174C199.576 78.8678 199.359 78.843 199.109 78.843C198.685 78.843 198.345 79.0413 198.09 79.438C197.835 79.8347 197.707 80.4187 197.707 81.1901C197.707 81.9284 197.84 82.4766 198.106 82.8347ZM215.212 86C217.146 86 218.629 85.5537 219.661 84.6612C220.694 83.7686 221.21 82.551 221.21 81.0083C221.21 80.0716 221.036 79.2507 220.688 78.5455C220.34 77.8402 219.732 77.2149 218.863 76.6694C217.993 76.124 216.771 75.6088 215.195 75.124C214.609 74.9366 214.155 74.7466 213.834 74.5537C213.514 74.3609 213.294 74.1543 213.174 73.9339C213.055 73.7135 212.995 73.4766 212.995 73.2231C212.995 72.8485 213.131 72.5455 213.403 72.314C213.674 72.0826 214.076 71.9669 214.609 71.9669C215.348 71.9669 216.046 72.2149 216.703 72.7107C217.36 73.2066 218.086 74.0551 218.879 75.2562C219.085 75.5096 219.292 75.6942 219.498 75.8099C219.705 75.9256 219.9 75.9614 220.085 75.9174C220.313 75.8512 220.454 75.6997 220.509 75.4628C220.563 75.2259 220.552 74.8871 220.476 74.4463L220.052 71.405C220.009 71.0854 219.927 70.8595 219.808 70.7273C219.688 70.595 219.531 70.5289 219.335 70.5289C219.161 70.5289 218.944 70.5895 218.683 70.7107C218.423 70.832 218.164 70.9559 217.909 71.0826C217.654 71.2094 217.461 71.2727 217.331 71.2727C217.211 71.2727 217.034 71.2066 216.801 71.0744C216.567 70.9421 216.239 70.8099 215.815 70.6777C215.391 70.5455 214.842 70.4793 214.169 70.4793C213.049 70.4793 212.042 70.6832 211.145 71.0909C210.249 71.4986 209.542 72.0799 209.026 72.8347C208.51 73.5895 208.252 74.4904 208.252 75.5372C208.252 76.4628 208.445 77.2727 208.831 77.9669C209.217 78.6612 209.806 79.2562 210.599 79.7521C211.392 80.2479 212.392 80.6501 213.598 80.9587C214.38 81.168 214.981 81.3802 215.399 81.595C215.817 81.8099 216.105 82.0441 216.263 82.2975C216.421 82.551 216.499 82.832 216.499 83.1405C216.499 83.5482 216.363 83.8843 216.092 84.1488C215.82 84.4132 215.407 84.5455 214.853 84.5455C214.332 84.5455 213.834 84.4325 213.362 84.2066C212.889 83.9807 212.403 83.5923 211.903 83.0413C211.403 82.4904 210.844 81.7355 210.224 80.7769C210.04 80.5234 209.83 80.3471 209.597 80.2479C209.363 80.1488 209.127 80.1543 208.888 80.2645C208.66 80.3526 208.513 80.5399 208.448 80.8264C208.383 81.1129 208.399 81.4656 208.497 81.8843L209.002 85.1736C209.078 85.5041 209.187 85.7245 209.328 85.8347C209.469 85.9449 209.621 86 209.784 86C209.969 86 210.194 85.9394 210.461 85.8182L211.259 85.4545C211.525 85.3333 211.74 85.2727 211.903 85.2727C212.066 85.2727 212.281 85.3333 212.547 85.4545C212.813 85.5758 213.161 85.697 213.59 85.8182C214.019 85.9394 214.56 86 215.212 86ZM230.663 85.3802C229.946 85.7603 229.098 85.9504 228.12 85.9504C226.469 85.9504 225.227 85.5482 224.396 84.7438C223.565 83.9394 223.149 82.6722 223.149 80.9422V73.4711C223.149 73.2397 223.127 73.0634 223.084 72.9421C223.041 72.8209 222.932 72.7218 222.758 72.6446L221.992 72.3967C221.807 72.3085 221.688 72.2011 221.633 72.0744C221.579 71.9477 221.552 71.7906 221.552 71.6033C221.552 71.3719 221.633 71.1818 221.796 71.0331C221.959 70.8843 222.16 70.8099 222.399 70.8099H223.198C223.296 70.8099 223.399 70.7713 223.508 70.6942C223.616 70.6171 223.763 70.4628 223.948 70.2314L226.963 67.7025C227.18 67.438 227.398 67.2369 227.615 67.0992C227.832 66.9614 228.05 66.8926 228.267 66.8926C228.517 66.8926 228.712 66.9697 228.854 67.124L228.898 67.1787C229.01 67.3332 229.066 67.5574 229.066 67.8512L229.065 70.8099H232.472C232.711 70.8099 232.896 70.8623 233.026 70.9669C233.157 71.0716 233.222 71.2342 233.222 71.4545C233.222 71.7631 233.086 72.0275 232.814 72.2479L232.754 72.2935C232.48 72.4835 232.065 72.5785 231.51 72.5785H229.065L229.066 80.1157C229.066 80.9421 229.204 81.5537 229.481 81.9504C229.758 82.3471 230.163 82.5455 230.695 82.5455C230.924 82.5455 231.136 82.4959 231.331 82.3967C231.527 82.2975 231.703 82.168 231.861 82.0083C232.018 81.8485 232.168 81.6694 232.309 81.4711C232.45 81.2727 232.586 81.0744 232.717 80.876C232.825 80.832 232.92 80.8512 233.002 80.9339C233.083 81.0165 233.119 81.1846 233.108 81.438C233.032 82.3306 232.784 83.1157 232.366 83.7934C231.948 84.4711 231.38 85 230.663 85.3802ZM241.339 85.9504C242.718 85.9504 243.935 85.6804 244.989 85.1405C246.043 84.6005 246.864 83.8815 247.451 82.9835C248.037 82.0854 248.331 81.0964 248.331 80.0165C248.331 79.8072 248.293 79.6584 248.217 79.5702C248.14 79.4821 248.048 79.438 247.939 79.438C247.863 79.438 247.774 79.4628 247.671 79.5124C247.567 79.562 247.451 79.6584 247.32 79.8017C247.092 80.5069 246.644 81.0578 245.975 81.4545C245.307 81.8512 244.538 82.0496 243.669 82.0496C242.311 82.0496 241.224 81.584 240.409 80.6529C239.932 80.1071 239.594 79.3804 239.396 78.4729L239.38 78.3967H246.831C247.303 78.3967 247.672 78.2723 247.94 78.0235L248.005 77.9587C248.276 77.6667 248.412 77.2672 248.412 76.7603C248.412 75.5923 248.138 74.5317 247.589 73.5785C247.04 72.6253 246.255 71.8705 245.234 71.314C244.212 70.7576 242.996 70.4793 241.583 70.4793C239.921 70.4793 238.497 70.8099 237.313 71.4711C236.128 72.1322 235.224 73.0551 234.599 74.2397C233.974 75.4242 233.662 76.8044 233.662 78.3802C233.662 79.8788 233.985 81.1983 234.632 82.3388C235.278 83.4793 236.177 84.3664 237.329 85C238.481 85.6336 239.817 85.9504 241.339 85.9504ZM239.187 76.281C239.187 76.5546 239.195 76.8181 239.21 77.0717L239.212 77.1074H241.746C242.159 77.1074 242.365 76.876 242.365 76.4132C242.365 74.9036 242.2 73.8237 241.868 73.1736C241.537 72.5234 241.181 72.1983 240.801 72.1983C240.507 72.1983 240.241 72.3223 240.002 72.5702C239.763 72.8182 239.567 73.2397 239.415 73.8347C239.263 74.4298 239.187 75.2452 239.187 76.281ZM258.289 85.6198C258.55 85.6198 258.748 85.551 258.884 85.4132C259.02 85.2755 259.088 85.0964 259.088 84.876C259.088 84.6887 259.039 84.5262 258.941 84.3884C258.843 84.2507 258.68 84.1653 258.452 84.1322L257.23 83.8843C257.023 83.8402 256.871 83.7273 256.773 83.5455C256.676 83.3636 256.627 83.1185 256.627 82.8099V76.9917C256.627 76.3416 256.665 75.8072 256.741 75.3884C256.817 74.9697 256.928 74.6584 257.075 74.4545C257.222 74.2507 257.393 74.1488 257.588 74.1488C257.784 74.1488 257.925 74.2204 258.012 74.3636C258.099 74.5069 258.148 74.7052 258.159 74.9587L258.175 75.6198C258.197 76.3691 258.4 76.9477 258.786 77.3554C259.172 77.7631 259.767 77.9669 260.571 77.9669C261.397 77.9669 262.07 77.6694 262.592 77.0744C263.114 76.4793 263.374 75.5482 263.374 74.281C263.374 73.0028 263.124 72.0496 262.625 71.4215C262.125 70.7934 261.408 70.4793 260.473 70.4793C259.702 70.4793 258.99 70.719 258.338 71.1983C257.686 71.6777 257.162 72.4105 256.765 73.3967C256.699 73.5611 256.639 73.7327 256.583 73.9116L256.555 74.0069L256.431 71.438C256.402 71.1344 256.35 70.9134 256.273 70.7752L256.244 70.7273C256.151 70.595 256.013 70.5289 255.828 70.5289C255.698 70.5289 255.54 70.551 255.355 70.595C255.171 70.6391 254.942 70.7163 254.671 70.8264L250.042 72.1653C249.781 72.2645 249.596 72.3829 249.488 72.5207C249.379 72.6584 249.325 72.8154 249.325 72.9917C249.325 73.146 249.36 73.2727 249.431 73.3719C249.501 73.4711 249.613 73.5647 249.765 73.6529L250.189 73.7025C250.33 73.7686 250.43 73.8595 250.49 73.9752C250.55 74.0909 250.58 74.281 250.58 74.5455V82.9421C250.58 83.2727 250.553 83.5096 250.498 83.6529C250.444 83.7961 250.346 83.9008 250.205 83.9669L249.83 84.1157C249.689 84.2149 249.577 84.3223 249.496 84.438C249.414 84.5537 249.374 84.6997 249.374 84.876C249.374 85.1074 249.442 85.2893 249.577 85.4215C249.713 85.5537 249.901 85.6198 250.14 85.6198H258.289ZM275.452 84.6612C274.419 85.5537 272.936 86 271.002 86C270.35 86 269.81 85.9394 269.38 85.8182C268.951 85.697 268.603 85.5758 268.337 85.4545C268.071 85.3333 267.856 85.2727 267.693 85.2727C267.53 85.2727 267.316 85.3333 267.05 85.4545L266.251 85.8182C265.985 85.9394 265.759 86 265.575 86C265.412 86 265.26 85.9449 265.118 85.8347C264.977 85.7245 264.868 85.5041 264.792 85.1736L264.287 81.8843C264.189 81.4656 264.173 81.1129 264.238 80.8264C264.303 80.5399 264.45 80.3526 264.678 80.2645C264.917 80.1543 265.154 80.1488 265.387 80.2479C265.621 80.3471 265.83 80.5234 266.015 80.7769C266.634 81.7355 267.194 82.4904 267.693 83.0413C268.193 83.5923 268.68 83.9807 269.152 84.2066C269.625 84.4325 270.122 84.5455 270.644 84.5455C271.198 84.5455 271.611 84.4132 271.882 84.1488C272.154 83.8843 272.29 83.5482 272.29 83.1405C272.29 82.832 272.211 82.551 272.053 82.2975C271.896 82.0441 271.608 81.8099 271.19 81.595C270.771 81.3802 270.171 81.168 269.389 80.9587C268.182 80.6501 267.183 80.2479 266.39 79.7521C265.596 79.2562 265.007 78.6612 264.621 77.9669C264.235 77.2727 264.043 76.4628 264.043 75.5372C264.043 74.4904 264.301 73.5895 264.817 72.8347C265.333 72.0799 266.039 71.4986 266.936 71.0909C267.832 70.6832 268.84 70.4793 269.959 70.4793C270.633 70.4793 271.181 70.5455 271.605 70.6777C272.029 70.8099 272.358 70.9421 272.591 71.0744C272.825 71.2066 273.001 71.2727 273.121 71.2727C273.251 71.2727 273.444 71.2094 273.7 71.0826C273.955 70.9559 274.213 70.832 274.474 70.7107C274.734 70.5895 274.952 70.5289 275.126 70.5289C275.321 70.5289 275.479 70.595 275.598 70.7273C275.718 70.8595 275.799 71.0854 275.843 71.405L276.267 74.4463C276.343 74.8871 276.353 75.2259 276.299 75.4628C276.245 75.6997 276.104 75.8512 275.875 75.9174C275.691 75.9614 275.495 75.9256 275.289 75.8099C275.082 75.6942 274.876 75.5096 274.669 75.2562C273.876 74.0551 273.151 73.2066 272.493 72.7107C271.836 72.2149 271.138 71.9669 270.399 71.9669C269.867 71.9669 269.465 72.0826 269.193 72.314C268.921 72.5455 268.785 72.8485 268.785 73.2231C268.785 73.4766 268.845 73.7135 268.965 73.9339C269.084 74.1543 269.304 74.3609 269.625 74.5537C269.945 74.7466 270.399 74.9366 270.986 75.124C272.561 75.6088 273.784 76.124 274.653 76.6694C275.522 77.2149 276.131 77.8402 276.478 78.5455C276.826 79.2507 277 80.0716 277 81.0083C277 82.551 276.484 83.7686 275.452 84.6612Z" fill="#555555"/>
<path fill-rule="evenodd" clip-rule="evenodd" d="M55.4893 65.0027C51.9749 61.4911 46.7655 60.9856 43.8766 63.8777C40.9862 66.7682 41.4917 71.9778 45.0001 75.4908C45.9361 76.4269 47.0145 77.1424 48.153 77.6554C48.5265 75.4848 49.5975 73.3983 51.2234 71.6853C50.685 71.4933 50.133 71.3313 49.557 71.1738C46.1461 70.2378 44.4511 67.3922 44.0551 64.0562C44.3826 64.45 44.6808 64.8631 44.9781 65.275C45.555 66.0742 46.1286 66.8688 46.9065 67.5092C48.1168 68.5058 49.4452 68.8904 50.8986 69.3113C50.9547 69.3275 51.011 69.3439 51.0674 69.3602C51.7559 69.5597 52.3544 69.8553 52.9034 70.2003C54.3464 69.1457 55.9738 68.4437 57.6538 68.1542C57.1423 67.0157 56.4253 65.9387 55.4893 65.0027ZM49.5465 78.4894C49.77 76.3159 50.823 74.1903 52.5104 72.5028C56.0248 68.9912 61.2342 68.4842 64.1232 71.3778C67.0136 74.2683 66.5096 79.4779 62.9967 82.991C61.3092 84.6785 59.1838 85.7315 57.0103 85.9565C56.7208 85.985 56.4343 86 56.1538 86C54.2849 86 52.6154 85.3445 51.3854 84.1145C49.9695 82.7 49.3155 80.7019 49.5465 78.4894ZM54.6869 80.2729C55.8388 79.3939 57.0853 79.0459 58.4413 78.6754C61.8522 77.7394 63.5457 74.8938 63.9432 71.5578C63.6184 71.9494 63.3224 72.3598 63.0273 72.7688C62.4487 73.5709 61.8735 74.3681 61.0917 75.0108C59.8778 76.009 58.5463 76.3943 57.0864 76.8168L56.9308 76.8619C53.5934 77.8309 51.9434 80.6524 51.5624 83.936C51.8912 83.541 52.1924 83.1309 52.492 82.7229C53.1423 81.8374 53.7852 80.962 54.6869 80.2729Z" fill="#0A775F"/>
<path d="M1268.34 65H1241.66C1240.74 65 1240 65.7413 1240 66.6562V93.345C1240 94.2588 1240.74 95 1241.66 95H1256.02V83.3825H1252.12V78.855H1256.02V75.5163C1256.02 71.6413 1258.39 69.5312 1261.85 69.5312C1263.51 69.5312 1264.93 69.655 1265.34 69.71V73.76L1262.95 73.7612C1261.07 73.7612 1260.7 74.655 1260.7 75.965V78.8562H1265.19L1264.6 83.3837H1260.7V95H1268.35C1269.26 95 1270 94.2587 1270 93.3438V66.6562C1270 65.7413 1269.26 65 1268.34 65Z" fill="#333333"/>
<path fill-rule="evenodd" clip-rule="evenodd" d="M1375 65C1370.93 65 1370.42 65.0175 1368.82 65.09C1363.37 65.34 1360.34 68.3625 1360.09 73.815C1360.02 75.4163 1360 75.9262 1360 80C1360 84.0737 1360.02 84.585 1360.09 86.185C1360.34 91.6325 1363.36 94.66 1368.82 94.91C1370.42 94.9825 1370.93 95 1375 95C1379.07 95 1379.58 94.9825 1381.18 94.91C1386.63 94.66 1389.66 91.6375 1389.91 86.185C1389.98 84.585 1390 84.0737 1390 80C1390 75.9262 1389.98 75.4163 1389.91 73.8162C1389.66 68.3737 1386.64 65.3413 1381.19 65.0913C1379.58 65.0175 1379.07 65 1375 65ZM1375 67.7039C1379.01 67.7039 1379.48 67.7189 1381.06 67.7914C1385.13 67.9764 1387.03 69.9051 1387.21 73.9401C1387.28 75.5214 1387.3 75.9964 1387.3 80.0014C1387.3 84.0076 1387.28 84.4814 1387.21 86.0626C1387.03 90.0939 1385.13 92.0264 1381.06 92.2114C1379.48 92.2839 1379.01 92.2989 1375 92.2989C1371 92.2989 1370.52 92.2839 1368.94 92.2114C1364.86 92.0251 1362.98 90.0876 1362.79 86.0614C1362.72 84.4801 1362.7 84.0064 1362.7 80.0001C1362.7 75.9951 1362.72 75.5214 1362.79 73.9389C1362.98 69.9051 1364.87 67.9751 1368.94 67.7901C1370.52 67.7189 1371 67.7039 1375 67.7039ZM1367.3 79.9999C1367.3 75.7461 1370.75 72.2974 1375 72.2974C1379.25 72.2974 1382.7 75.7461 1382.7 79.9999C1382.7 84.2549 1379.25 87.7036 1375 87.7036C1370.75 87.7036 1367.3 84.2536 1367.3 79.9999ZM1375 85C1372.24 85 1370 82.7625 1370 80C1370 77.2387 1372.24 75 1375 75C1377.76 75 1380 77.2387 1380 80C1380 82.7625 1377.76 85 1375 85ZM1381.21 71.9935C1381.21 70.9997 1382.01 70.1935 1383.01 70.1935C1384 70.1935 1384.81 70.9997 1384.81 71.9935C1384.81 72.9872 1384 73.7935 1383.01 73.7935C1382.01 73.7935 1381.21 72.9872 1381.21 71.9935Z" fill="#333333"/>
<path d="M1330 69.9596C1328.9 70.4621 1327.71 70.8005 1326.47 70.953C1327.74 70.1724 1328.71 68.9355 1329.17 67.4614C1327.98 68.1844 1326.66 68.7099 1325.26 68.9932C1324.14 67.7665 1322.54 67 1320.77 67C1316.8 67 1313.88 70.8018 1314.77 74.7484C1309.66 74.4856 1305.12 71.9733 1302.09 68.1549C1300.48 70.9915 1301.25 74.7023 1303.99 76.5814C1302.99 76.548 1302.03 76.2648 1301.21 75.7918C1301.14 78.7155 1303.18 81.4509 1306.14 82.0597C1305.28 82.3007 1304.33 82.3571 1303.36 82.1674C1304.14 84.6746 1306.42 86.4986 1309.11 86.5498C1306.53 88.6302 1303.26 89.5595 1300 89.1647C1302.72 90.9553 1305.96 92 1309.43 92C1320.86 92 1327.32 82.1033 1326.93 73.2269C1328.13 72.3361 1329.17 71.2248 1330 69.9596Z" fill="#333333"/>
</svg>
